<?xml version="1.0" encoding="UTF-8"?>
<svg xmlns="http://www.w3.org/2000/svg" class="card card-auto" data-layout="compact" role="img" width="420" height="336" viewBox="0 0 420 336" aria-labelledby="title desc">
  <title id="title">Buildmarks project card for Sample data · example-builder</title>
  <desc id="desc">Buildmarks reviewed 2 repositories and found 30 project practices. The overall result is Platinum V, 74 out of 100. Maintainability Platinum V, 72 out of 100, Project Readiness Platinum I, 88 out of 100, Ease of Use Gold I, 68 out of 100, Shipping Platinum IV, 78 out of 100, Consistency Platinum V, 71 out of 100, Project Care Gold I, 65 out of 100. This card is based on public GitHub repositories only. Buildmarks is not a developer ranking. Representative projects: example/sample-toolkit: Docs + examples; Release + manifest. example/sample-project: License found</desc>
  <style>.card { --surface:#f1edfa;--text:#30224b;--muted:#685880;--accent:#7251ae;--secondary:#575cbe;--track:#dcd2ee;--chip:#e5dcf4;--line:#cfc1e4; }
    .card-dark { --surface:#221c36;--text:#fff3e7;--muted:#c8bade;--accent:#bbabff;--secondary:#8d91f9;--track:#453958;--chip:#362b4b;--line:#65547d; }
    @media (prefers-color-scheme: dark) { .card-auto { --surface:#221c36;--text:#fff3e7;--muted:#c8bade;--accent:#bbabff;--secondary:#8d91f9;--track:#453958;--chip:#362b4b;--line:#65547d; } }
    text { font-family:ui-sans-serif, system-ui, -apple-system, BlinkMacSystemFont, "Segoe UI", sans-serif; fill:var(--text); }
    .surface { fill:var(--surface); }
    .brand { font-size:20px; font-weight:750; }
    .username { font-size:20px; font-weight:650; }
    .cover-title { font-size:40px; font-weight:800; letter-spacing:-1px; }
    .cover-serif { font-family:Georgia, "Times New Roman", serif; letter-spacing:-.5px; }
    .metric { font-size:15px; font-weight:600; }
    .value { font-size:15px; font-weight:700; text-anchor:end; font-variant-numeric:tabular-nums; }
    .missing { font-size:12px; font-weight:500; fill:var(--muted); }
    .missing-track { stroke:var(--line); stroke-width:2; stroke-dasharray:3 5; }
    .checked { font-size:12px; font-weight:600; fill:var(--muted); text-anchor:end; }
    .caption { font-size:12px; font-weight:600; fill:var(--muted); }
    .footer { font-size:12px; font-weight:500; fill:var(--muted); }
    .divider { stroke:var(--line); stroke-width:1; }
    .track { fill:var(--track); }
    .bar,.accent { fill:var(--accent); }
    .secondary { fill:var(--secondary); }
    .emblem-stroke { stroke:var(--accent); }
    .art-line { stroke:var(--line); fill:none; stroke-width:1; }
    .art-ink { stroke:var(--text); }
    .art-page { fill:#fff4e5; }
    .art-page + .art-ink { stroke:#203044; }
    .chip-bg { fill:var(--chip); }
    .chip { font-size:12px; font-weight:600; }

    .brand { font-size:16px; }
    .username { font-size:19px; }
    .cover-title { font-size:29px; letter-spacing:-.5px; }
    .checked,.footer { font-size:14px; }
    .project { font-size:16px; font-weight:650; }
    .facts { font-size:14px; fill:var(--muted); }
  </style>
  <rect width="420" height="336" rx="16" class="surface" />
  <text x="22" y="32" class="brand">Buildmarks</text>
  <text x="398" y="32" class="checked">Some details couldn&apos;t be checked</text>
  <text x="22" y="63" class="username">Sample data · example-bui…</text>
  <g data-cover="well-rounded" aria-label="Well Rounded">
    <text x="22" y="104" class="cover-title"><tspan x="22">Well</tspan><tspan x="22" dy="32">Rounded</tspan></text>
    <g transform="translate(298 77) scale(.42)" aria-hidden="true"><path d="M93 5q5-3 10 0l20 12q5 3 5 9v23l-30 17-30-17V26q0-6 5-9Z" transform="rotate(0 98 77)" class="accent" /><path d="M93 5q5-3 10 0l20 12q5 3 5 9v23l-30 17-30-17V26q0-6 5-9Z" transform="rotate(60 98 77)" class="secondary" /><path d="M93 5q5-3 10 0l20 12q5 3 5 9v23l-30 17-30-17V26q0-6 5-9Z" transform="rotate(120 98 77)" class="accent" /><path d="M93 5q5-3 10 0l20 12q5 3 5 9v23l-30 17-30-17V26q0-6 5-9Z" transform="rotate(180 98 77)" class="secondary" /><path d="M93 5q5-3 10 0l20 12q5 3 5 9v23l-30 17-30-17V26q0-6 5-9Z" transform="rotate(240 98 77)" class="accent" /><path d="M93 5q5-3 10 0l20 12q5 3 5 9v23l-30 17-30-17V26q0-6 5-9Z" transform="rotate(300 98 77)" class="secondary" /></g>
  </g>
  <path d="M22 149h376" class="divider" aria-hidden="true" />
  <g aria-label="Representative projects and observed details">
    <g role="img" aria-label="example/sample-toolkit: Docs + examples; Release + manifest">
      <text x="22" y="176" class="project">sample-toolkit · example</text>
      <text x="22" y="199" class="facts">Docs + examples · Release + manifest</text>
    </g>
<g role="img" aria-label="example/sample-project: License found">
      <text x="22" y="232" class="project">sample-project · example</text>
      <text x="22" y="255" class="facts">License found</text>
    </g>
  </g>
  <path d="M22 272h376" class="divider" aria-hidden="true" />
  <text x="22" y="296" class="footer">Public GitHub projects · 2 reviewed</text>
  <text x="22" y="319" class="footer">Generated 2026-05-28 · v0.4.0</text>

</svg>